# xmcd CD database file
#
# Track frame offsets:
#	150
#	17803
#	33522
#	47239
#	69278
#	84667
#	101007
#	118542
#	135405
#	159020
#	179046
#	199114
#
# Disc length: 2868 seconds
#
# Revision: 1
# Processed by: cddbd v1.5.2PL0 Copyright (c) Steve Scherf et al.
# Submitted via: jetAudio 7
#
DISCID=9b0b320c
DTITLE=SHINee - WORLD
DYEAR=1900
DGENRE=Dance
TTITLE0=The SHINee World (doo-bop)
TTITLE1=Love's Way
TTITLE2=Love Loke Oxygen
TTITLE3=ROMANTIC
TTITLE4=One for me
TTITLE5=Graze
TTITLE6=Last Gift (In my room-Prelude)
TTITLE7=Best Plase
TTITLE8=Y Si Fuera Ella
TTITLE9=Four Seasons
TTITLE10=In my room (Unplugged Remix)
TTITLE11=Replay
EXTD=
EXTT0=
EXTT1=
EXTT2=
EXTT3=
EXTT4=
EXTT5=
EXTT6=
EXTT7=
EXTT8=
EXTT9=
EXTT10=
EXTT11=
PLAYORDER=
